# xmcd CD database file
#
# Track frame offsets:
#	150
#	11775
#	38223
#	59973
#	82661
#	98824
#	114146
#	137627
#	156004
#	171719
#	190058
#	207581
#	229744
#	249159
#	274244
#	296744
#	310807
#	322469
#
# Disc length: 4463 seconds
#
# Revision: 0
# Processed by: cddbd v1.5.2PL0 Copyright (c) Steve Scherf et al.
# Submitted via: CDex 1.70beta2
#
DISCID=0a116d12
DTITLE=Сборник - ROMANTIC HITS 2000
DYEAR=2000
DGENRE=Blues
TTITLE0=Demis Roussos /From souvenirs to souvenirs
TTITLE1=Fugees - Killing me softly
TTITLE2=Brain Adams - Heve you ever really loved a woman?
TTITLE3=Elton John - Blessed
TTITLE4=Chilly - Springtime
TTITLE5=Chris de Burg - Moonlight and vodka]
TTITLE6=Tina Terner/ Ease as life
TTITLE7=Ricky Martin&Madonna - Be careful
TTITLE8=Dire Straits - where do you think you`re going
TTITLE9=Tim Timmermans - Andrea with the flowered bag
TTITLE10=Sting - Fragile
TTITLE11=Casandra Evora - Иesame mucho
TTITLE12=Kayah&Bregovic - Ta-bakiera
TTITLE13=Adriano Celentano - Ja tebia Liubliu
TTITLE14=Chris Rea - Looking for the summer
TTITLE15=Frank Sinatra&Antonio Carlos Jobim - Fly me to the moon
TTITLE16=Nina Simone - I put a spell on you
TTITLE17=Joe Cocckeer - You are so beautiful
EXTD=YEAR: 2000
EXTT0=
EXTT1=
EXTT2=
EXTT3=
EXTT4=
EXTT5=
EXTT6=
EXTT7=
EXTT8=
EXTT9=
EXTT10=
EXTT11=
EXTT12=
EXTT13=
EXTT14=
EXTT15=
EXTT16=
EXTT17=
PLAYORDER=
